<?xml version="1.0" standalone="no"?>
<!DOCTYPE svg PUBLIC "-//W3C//DTD SVG 20010904//EN"
 "http://www.w3.org/TR/2001/REC-SVG-20010904/DTD/svg10.dtd">
<svg version="1.0" xmlns="http://www.w3.org/2000/svg"
 width="512.000000pt" height="512.000000pt" viewBox="0 0 512.000000 512.000000"
 preserveAspectRatio="xMidYMid meet">

<g transform="translate(0.000000,512.000000) scale(0.100000,-0.100000)"
fill="#000000" stroke="none">
<path d="M2712 5113 c-13 -3 -37 -19 -55 -37 -18 -19 -336 -580 -727 -1282
-865 -1554 -820 -1472 -820 -1513 0 -51 37 -108 85 -131 40 -19 62 -20 602
-20 l561 0 -5 -58 c-2 -31 -35 -477 -73 -990 -51 -702 -66 -943 -58 -970 29
-109 164 -146 241 -68 18 18 340 587 727 1282 865 1554 820 1472 820 1513 0
51 -37 108 -85 131 -40 19 -62 20 -602 20 l-561 0 5 58 c2 31 35 477 73 990
51 703 66 942 58 970 -22 82 -94 122 -186 105z"/>
<path d="M1965 4625 c-242 -69 -471 -183 -687 -340 -110 -79 -368 -338 -445
-446 -265 -368 -396 -742 -419 -1194 -23 -448 121 -941 384 -1315 258 -368
642 -658 1059 -800 l81 -28 7 111 c4 62 8 132 9 155 l1 44 -61 23 c-503 190
-912 618 -1084 1133 -136 405 -131 819 12 1222 161 453 535 860 965 1051 l68
30 100 182 c55 99 102 184 103 189 5 11 -1 10 -93 -17z"/>
<path d="M3175 4507 c-4 -62 -8 -132 -9 -155 l-1 -44 61 -23 c503 -190 912
-618 1084 -1133 136 -405 131 -819 -12 -1222 -161 -453 -534 -859 -965 -1051
l-68 -30 -103 -186 c-56 -103 -101 -188 -99 -189 5 -5 169 43 252 74 296 111
522 258 760 497 150 150 230 249 324 404 467 769 397 1770 -172 2466 -250 307
-598 550 -964 675 l-81 28 -7 -111z"/>
</g>
</svg>
